<svg width="327" height="200" viewBox="0 0 327 200" fill="none" xmlns="http://www.w3.org/2000/svg">
<path d="M213.631 111H118.67C118.051 111.002 117.459 111.248 117.021 111.685C116.584 112.123 116.338 112.715 116.336 113.334V176.447H215.971V113.334C215.969 112.715 215.722 112.121 215.284 111.684C214.845 111.246 214.251 111 213.631 111Z" fill="#4C4C4C"/>
<path d="M104.305 178.613H227.993V176.445H104.305V178.613Z" fill="#3E3E3E"/>
<path d="M104.305 178.605C107.027 179.049 109.78 179.269 112.538 179.261H219.764C222.522 179.269 225.276 179.049 227.997 178.605H104.305Z" fill="#4C4C4C"/>
<path d="M157.289 176.445V176.856C157.29 177.062 157.372 177.26 157.517 177.406C157.663 177.551 157.861 177.634 158.067 177.634H174.227C174.433 177.634 174.631 177.551 174.777 177.406C174.922 177.26 175.005 177.062 175.005 176.856V176.445H157.289Z" fill="#EAEAEA"/>
<path d="M212.854 114.113H119.445V135.298L120.334 172.654L212.429 173.017L212.854 145.98L212.854 114.113Z" fill="#1A1A1A"/>
<path d="M179.2 121.75H142.195V124.525H179.2V121.75Z" fill="#3E3E3E"/>
<path d="M169.024 128.227H142.195V131.002H169.024V128.227Z" fill="#3E3E3E"/>
<path d="M142.822 116.637H101.185C100.606 116.638 100.052 116.868 99.6421 117.277C99.2326 117.686 99.0017 118.24 99 118.819V177.086C99.0017 177.664 99.2323 178.219 99.6414 178.628C100.05 179.037 100.605 179.267 101.183 179.269H142.823C143.401 179.267 143.955 179.037 144.364 178.627C144.773 178.218 145.003 177.664 145.005 177.086V118.819C145.003 118.241 144.773 117.686 144.364 117.277C143.955 116.869 143.4 116.638 142.822 116.637Z" fill="#4C4C4C"/>
<path d="M142.133 118.777H101.844C101.651 118.778 101.467 118.855 101.33 118.991C101.194 119.128 101.117 119.313 101.117 119.505V176.398C101.117 176.591 101.194 176.775 101.33 176.912C101.467 177.048 101.651 177.125 101.844 177.126H142.133C142.326 177.125 142.511 177.048 142.647 176.912C142.783 176.775 142.86 176.591 142.86 176.398V119.504C142.86 119.312 142.783 119.127 142.647 118.991C142.511 118.855 142.326 118.778 142.133 118.777Z" fill="#1A1A1A"/>
<path d="M149.539 139.141H133.655C132.926 139.142 132.228 139.431 131.712 139.947C131.197 140.462 130.907 141.16 130.906 141.889V181.908C130.907 182.637 131.197 183.335 131.712 183.85C132.228 184.365 132.926 184.655 133.655 184.656H149.538C150.267 184.655 150.965 184.365 151.481 183.85C151.996 183.335 152.286 182.637 152.287 181.908V141.889C152.286 141.161 151.996 140.462 151.481 139.947C150.966 139.432 150.268 139.142 149.539 139.141Z" fill="#4C4C4C"/>
<path d="M133.655 183.872C133.134 183.872 132.635 183.665 132.266 183.297C131.897 182.929 131.689 182.43 131.688 181.91V141.888C131.689 141.367 131.897 140.868 132.266 140.5C132.635 140.133 133.134 139.926 133.655 139.926H135.87V140.087C135.87 140.503 136.035 140.902 136.329 141.197C136.622 141.492 137.021 141.658 137.437 141.659H145.749C146.166 141.658 146.565 141.492 146.86 141.197C147.155 140.903 147.321 140.503 147.322 140.087V139.926H149.536C150.056 139.927 150.555 140.134 150.923 140.501C151.29 140.869 151.498 141.368 151.499 141.888V181.91C151.498 182.43 151.29 182.928 150.923 183.296C150.555 183.664 150.056 183.871 149.536 183.872H133.655Z" fill="#1A1A1A"/>
<path d="M132.941 123.609H105.188V125.46H132.941V123.609Z" fill="#3E3E3E"/>
<path d="M124.615 128.238H105.188V130.088H124.615V128.238Z" fill="#3E3E3E"/>
<path d="M147.749 144.891H134.797V145.816H147.749V144.891Z" fill="#3E3E3E"/>
<path d="M144.048 147.66H134.797V148.585H144.048V147.66Z" fill="#3E3E3E"/>
<rect x="195.336" y="97.5" width="32" height="32" rx="4" fill="#3DBD86"/>
<path opacity="0.24" d="M208.515 102.883C207.844 102.677 207.164 103.177 207.164 103.877V107.815L214.78 110.15C215.218 110.285 215.517 110.688 215.517 111.145V116.996L219.386 118.182C220.057 118.388 220.737 117.888 220.737 117.188V107.399C220.737 106.942 220.438 106.539 220 106.404L208.515 102.883Z" fill="#7ADBAE"/>
<path opacity="0.8" d="M205.906 104.547C205.234 104.341 204.555 104.841 204.555 105.541V107.014L214.781 110.15C215.219 110.284 215.518 110.687 215.518 111.144V119.46L216.777 119.846C217.448 120.052 218.128 119.552 218.128 118.852V109.063C218.128 108.606 217.829 108.203 217.391 108.068L205.906 104.547Z" fill="#7ADBAE"/>
<path fill-rule="evenodd" clip-rule="evenodd" d="M203.289 106.629C202.617 106.423 201.938 106.923 201.938 107.623V117.423C201.938 117.874 202.23 118.274 202.661 118.413L206.995 119.805C207.101 119.839 207.193 119.906 207.258 119.996L210.128 123.953C210.425 124.362 211.073 124.153 211.073 123.648V120.994L214.162 121.933C214.833 122.137 215.511 121.636 215.511 120.937V111.145C215.511 110.688 215.212 110.285 214.774 110.151L203.289 106.629ZM209.648 111.756C209.893 111.827 210.093 112.081 210.093 112.323V113.442L212.228 112.824C212.287 112.807 212.357 112.831 212.413 112.887C212.469 112.943 212.503 113.024 212.502 113.1V117.789C212.502 117.865 212.468 117.926 212.413 117.95C212.357 117.974 212.287 117.957 212.228 117.906L210.093 116.175V117.14C210.093 117.382 209.893 117.52 209.648 117.449L204.856 116.066C204.61 115.995 204.41 115.742 204.41 115.5V110.683C204.41 110.441 204.61 110.302 204.856 110.373L209.648 111.756Z" fill="#AFEBCB"/>
<path d="M209.651 111.757C209.897 111.828 210.096 112.082 210.096 112.323V113.443L212.232 112.825C212.291 112.808 212.36 112.832 212.416 112.888C212.472 112.944 212.506 113.025 212.506 113.101V117.79C212.506 117.866 212.472 117.927 212.416 117.951C212.36 117.974 212.29 117.958 212.232 117.907L210.096 116.176V117.141C210.096 117.383 209.897 117.521 209.651 117.45L204.859 116.067C204.613 115.996 204.414 115.743 204.414 115.501V110.684C204.414 110.442 204.613 110.303 204.859 110.374L209.651 111.757Z" fill="white"/>
<path d="M216.898 102.812H219.032V106.68L220.591 104.879H223.161L221.207 106.782L223.273 110.312H220.919L219.817 108.133L219.032 108.9V110.312H216.898V102.812Z" fill="white"/>
<path d="M280.447 83.0413L279.284 76.4745L275.918 77.0708L277.081 83.6377L270.425 82.3695L269.869 85.6553L276.495 86.758L273.591 92.8503L276.848 94.2084L279.613 87.9701L284.684 92.8202L286.88 90.439L282.124 85.7608L288.079 82.4291L286.262 79.5637L280.447 83.0413Z" fill="#FFAA4C"/>
<path d="M49.9561 86.3674L46.9347 80.4219L43.887 81.9708L46.9085 87.9162L40.1711 88.6369L40.5937 91.9426L47.255 91.0719L46.2459 97.7455L49.7571 98.0985L50.5901 91.3258L56.8517 94.4931L58.2612 91.5765L52.351 88.4821L57.081 83.5638L54.51 81.3499L49.9561 86.3674Z" fill="#FFAA4C"/>
<path d="M117.159 57.1359L118.109 52.6489L115.827 52.166L114.877 56.6531L110.993 54.1373L109.798 56.0905L113.706 58.4932L110.306 61.6344L112.017 63.3359L115.367 60.0658L117.329 64.4599L119.329 63.5043L117.522 59.3006L122.143 58.7026L121.729 56.409L117.159 57.1359Z" fill="#FFDF9E"/>
<path d="M190.646 22.009V15.3398H187.227V22.009L180.894 19.5991L179.773 22.7375L186.106 24.9793L182.183 30.4715L185.154 32.3769L188.964 26.7166L193.112 32.3769L195.69 30.4154L191.823 24.9793L198.268 22.7375L196.979 19.5991L190.646 22.009Z" fill="#FFDF9E"/>
<path d="M280.333 134.876V130.703H278.195V134.876L274.233 133.368L273.531 135.331L277.493 136.734L275.039 140.17L276.897 141.362L279.282 137.821L281.876 141.362L283.489 140.135L281.07 136.734L285.102 135.331L284.295 133.368L280.333 134.876Z" fill="#FFDF9E"/>
<path d="M229.951 62.56L226.898 61.5081C225.963 61.1556 224.941 61.0792 223.952 61.2878C222.963 61.4964 222.047 61.9815 221.312 62.6862L215.89 68.0946C215.717 68.2761 215.597 68.5016 215.545 68.7452C215.493 68.9888 215.511 69.2405 215.595 69.4715C215.68 69.7192 215.824 69.9407 216.017 70.116C216.209 70.2914 216.444 70.4151 216.699 70.476L224.062 72.2032" fill="#3E3E3E"/>
<path d="M229.951 62.56L226.898 61.5081C225.963 61.1556 224.941 61.0792 223.952 61.2878C222.963 61.4964 222.047 61.9815 221.312 62.6862L215.89 68.0946C215.717 68.2761 215.597 68.5016 215.545 68.7452C215.493 68.9888 215.511 69.2405 215.595 69.4715C215.68 69.7192 215.824 69.9407 216.017 70.116C216.209 70.2914 216.444 70.4151 216.699 70.476L224.062 72.2032L229.951 62.56Z" stroke="#9F9F9F" stroke-width="0.5" stroke-linecap="round" stroke-linejoin="round"/>
<path d="M241.995 74.5181L243.047 77.571C243.399 78.5056 243.476 79.5275 243.267 80.5169C243.058 81.5062 242.573 82.422 241.869 83.1568L236.46 88.579C236.279 88.752 236.053 88.8714 235.809 88.9234C235.566 88.9755 235.314 88.9581 235.083 88.8733C234.835 88.7892 234.614 88.6444 234.439 88.4518C234.263 88.2593 234.14 88.025 234.079 87.7702L232.351 80.4064" fill="#3E3E3E"/>
<path d="M241.995 74.5181L243.047 77.571C243.399 78.5056 243.476 79.5275 243.267 80.5169C243.058 81.5062 242.573 82.422 241.869 83.1568L236.46 88.579C236.279 88.752 236.053 88.8714 235.809 88.9234C235.566 88.9755 235.314 88.9581 235.083 88.8733C234.835 88.7892 234.614 88.6444 234.439 88.4518C234.263 88.2593 234.14 88.025 234.079 87.7702L232.351 80.4064L241.995 74.5181Z" stroke="#9F9F9F" stroke-width="0.5" stroke-linecap="round" stroke-linejoin="round"/>
<path d="M261.309 42.7599C261.417 42.7852 261.498 42.8799 261.502 42.994L262.014 56.2191V56.2343C261.972 58.2326 261.438 60.1892 260.459 61.9305C259.479 63.6717 258.086 65.1439 256.401 66.2173L256.396 66.2215L232.611 80.5708C232.512 80.6299 232.387 80.6146 232.306 80.5335L223.711 71.9281C223.63 71.8467 223.614 71.7198 223.674 71.6215L238.035 47.8374L238.039 47.8319C239.116 46.1524 240.59 44.7636 242.331 43.7888L242.66 43.6113C244.317 42.7497 246.151 42.2807 248.022 42.242H248.037L261.262 42.7537L261.309 42.7599Z" fill="#1A1A1A" stroke="#9F9F9F" stroke-width="0.5" stroke-linecap="round" stroke-linejoin="round"/>
<path d="M261.251 43.005L261.764 56.2301C261.764 56.2301 258.692 50.996 255.976 48.2806C253.261 45.5652 248.027 42.4928 248.027 42.4928L261.251 43.005Z" fill="#3E3E3E"/>
<path d="M246.297 62.7262C248.935 62.7262 251.073 60.5878 251.073 57.95C251.073 55.3121 248.935 53.1737 246.297 53.1737C243.659 53.1737 241.521 55.3121 241.521 57.95C241.521 60.5878 243.659 62.7262 246.297 62.7262Z" fill="#3E3E3E" stroke="#9F9F9F" stroke-width="0.5" stroke-linecap="round" stroke-linejoin="round"/>
<path d="M225.247 79.0027C227.523 81.279 227.523 84.97 225.247 87.2463C224.7 87.7931 223.783 88.2095 222.676 88.5189C221.576 88.8263 220.322 89.0195 219.135 89.139C217.949 89.2584 216.835 89.304 216.018 89.32C215.609 89.3279 215.274 89.3284 215.043 89.3269C214.999 89.3266 214.959 89.3252 214.923 89.3248C214.923 89.2889 214.922 89.2492 214.922 89.206C214.92 88.9744 214.922 88.6401 214.93 88.2317C214.945 87.4143 214.991 86.3007 215.11 85.1146C215.23 83.9271 215.423 82.6731 215.731 81.5736C216.04 80.4668 216.456 79.5497 217.003 79.0027C219.28 76.7264 222.97 76.7264 225.247 79.0027Z" fill="#1A1A1A" stroke="#9F9F9F" stroke-width="0.5"/>
<path d="M223.58 84.8415C222.427 85.9946 218.36 85.8854 218.36 85.8854C218.36 85.8854 218.251 81.819 219.404 80.6659C220.557 79.5129 222.427 79.5129 223.58 80.6659C224.733 81.819 224.733 83.6885 223.58 84.8415Z" fill="#3E3E3E"/>
</svg>
