<svg width="327" height="200" viewBox="0 0 327 200" fill="none" xmlns="http://www.w3.org/2000/svg">
<path d="M213.631 110.812H118.67C118.051 110.814 117.459 111.061 117.021 111.498C116.584 111.935 116.338 112.528 116.336 113.146V176.26H215.971V113.146C215.969 112.527 215.722 111.934 215.284 111.496C214.845 111.059 214.251 110.813 213.631 110.812Z" fill="#E0E0E0"/>
<path d="M104.305 178.425H227.993V176.258H104.305V178.425Z" fill="#F5F5F5"/>
<path d="M104.305 178.418C107.027 178.862 109.78 179.081 112.538 179.074H219.764C222.522 179.081 225.276 178.862 227.997 178.418H104.305Z" fill="#E0E0E0"/>
<path d="M157.289 176.258V176.669C157.29 176.875 157.372 177.072 157.517 177.218C157.663 177.364 157.861 177.446 158.067 177.447H174.227C174.433 177.446 174.631 177.364 174.777 177.218C174.922 177.072 175.005 176.875 175.005 176.669V176.258H157.289Z" fill="#EAEAEA"/>
<path d="M212.854 113.926H119.445V135.11L120.334 172.467L212.429 172.829L212.854 145.793L212.854 113.926Z" fill="white"/>
<path d="M179.2 121.562H142.195V124.338H179.2V121.562Z" fill="#F5F5F5"/>
<path d="M169.024 128.039H142.195V130.814H169.024V128.039Z" fill="#F5F5F5"/>
<path d="M142.822 116.449H101.185C100.606 116.45 100.052 116.68 99.6421 117.089C99.2326 117.498 99.0017 118.053 99 118.631V176.898C99.0017 177.477 99.2323 178.031 99.6414 178.44C100.05 178.849 100.605 179.08 101.183 179.082H142.823C143.401 179.08 143.955 178.849 144.364 178.44C144.773 178.031 145.003 177.477 145.005 176.898V118.631C145.003 118.053 144.773 117.499 144.364 117.09C143.955 116.681 143.4 116.451 142.822 116.449Z" fill="#E0E0E0"/>
<path d="M142.133 118.59H101.844C101.651 118.59 101.467 118.667 101.33 118.804C101.194 118.94 101.117 119.125 101.117 119.318V176.21C101.117 176.403 101.194 176.588 101.33 176.724C101.467 176.861 101.651 176.938 101.844 176.938H142.133C142.326 176.938 142.511 176.861 142.647 176.724C142.783 176.588 142.86 176.403 142.86 176.21V119.317C142.86 119.124 142.783 118.94 142.647 118.803C142.511 118.667 142.326 118.59 142.133 118.59Z" fill="white"/>
<path d="M149.539 138.953H133.655C132.926 138.954 132.228 139.244 131.712 139.759C131.197 140.274 130.907 140.973 130.906 141.702V181.72C130.907 182.449 131.197 183.148 131.712 183.663C132.228 184.178 132.926 184.468 133.655 184.469H149.538C150.267 184.468 150.965 184.178 151.481 183.663C151.996 183.148 152.286 182.449 152.287 181.72V141.702C152.286 140.973 151.996 140.275 151.481 139.76C150.966 139.244 150.268 138.954 149.539 138.953Z" fill="#E0E0E0"/>
<path d="M133.655 183.684C133.134 183.684 132.635 183.478 132.266 183.11C131.897 182.742 131.689 182.243 131.688 181.722V141.7C131.689 141.18 131.897 140.681 132.266 140.313C132.635 139.945 133.134 139.739 133.655 139.738H135.87V139.899C135.87 140.315 136.035 140.715 136.329 141.009C136.622 141.304 137.021 141.47 137.437 141.472H145.749C146.166 141.471 146.565 141.305 146.86 141.01C147.155 140.715 147.321 140.316 147.322 139.899V139.738H149.536C150.056 139.739 150.555 139.946 150.923 140.314C151.29 140.682 151.498 141.18 151.499 141.7V181.722C151.498 182.242 151.29 182.741 150.923 183.108C150.555 183.476 150.056 183.683 149.536 183.684H133.655Z" fill="white"/>
<path d="M132.941 123.422H105.188V125.272H132.941V123.422Z" fill="#F5F5F5"/>
<path d="M124.615 128.051H105.188V129.901H124.615V128.051Z" fill="#F5F5F5"/>
<path d="M147.749 144.703H134.797V145.628H147.749V144.703Z" fill="#F5F5F5"/>
<path d="M144.048 147.473H134.797V148.398H144.048V147.473Z" fill="#F5F5F5"/>
<rect x="195.336" y="100.766" width="32" height="32" rx="4" fill="#3DBD86"/>
<path opacity="0.24" d="M208.507 106.148C207.836 105.942 207.156 106.443 207.156 107.143V111.081L214.772 113.416C215.21 113.55 215.509 113.954 215.509 114.411V120.261L219.378 121.448C220.05 121.654 220.729 121.153 220.729 120.453V110.665C220.729 110.208 220.43 109.804 219.992 109.67L208.507 106.148Z" fill="#7ADBAE"/>
<path opacity="0.8" d="M205.898 107.812C205.227 107.606 204.547 108.107 204.547 108.807V110.279L214.773 113.415C215.211 113.55 215.51 113.953 215.51 114.41V122.726L216.769 123.112C217.44 123.318 218.12 122.817 218.12 122.117V112.329C218.12 111.872 217.821 111.468 217.383 111.334L205.898 107.812Z" fill="#7ADBAE"/>
<path fill-rule="evenodd" clip-rule="evenodd" d="M203.289 109.894C202.617 109.688 201.938 110.189 201.938 110.889V120.688C201.938 121.14 202.23 121.54 202.661 121.679L206.995 123.071C207.101 123.105 207.193 123.171 207.258 123.261L210.128 127.218C210.425 127.627 211.073 127.418 211.073 126.914V124.26L214.162 125.198C214.833 125.402 215.511 124.902 215.511 124.203V114.411C215.511 113.954 215.212 113.55 214.774 113.416L203.289 109.894ZM209.648 115.022C209.893 115.093 210.093 115.346 210.093 115.588V116.708L212.228 116.09C212.287 116.073 212.357 116.097 212.413 116.153C212.469 116.209 212.503 116.289 212.502 116.365V121.055C212.502 121.131 212.468 121.192 212.413 121.215C212.357 121.239 212.287 121.223 212.228 121.172L210.093 119.441V120.406C210.093 120.647 209.893 120.786 209.648 120.715L204.856 119.332C204.61 119.261 204.41 119.008 204.41 118.766V113.948C204.41 113.706 204.61 113.568 204.856 113.639L209.648 115.022Z" fill="#AFEBCB"/>
<path d="M209.651 115.023C209.897 115.094 210.096 115.347 210.096 115.589V116.709L212.232 116.091C212.291 116.074 212.36 116.098 212.416 116.154C212.472 116.21 212.506 116.29 212.506 116.366V121.056C212.506 121.132 212.472 121.193 212.416 121.216C212.36 121.24 212.29 121.224 212.232 121.173L210.096 119.442V120.406C210.096 120.648 209.897 120.787 209.651 120.716L204.859 119.333C204.613 119.262 204.414 119.008 204.414 118.767V113.949C204.414 113.707 204.613 113.569 204.859 113.64L209.651 115.023Z" fill="white"/>
<path d="M216.898 106.078H219.032V109.946L220.591 108.145H223.161L221.207 110.048L223.273 113.578H220.919L219.817 111.399L219.032 112.166V113.578H216.898V106.078Z" fill="white"/>
<path d="M280.447 83.2327L279.284 76.6659L275.918 77.2622L277.081 83.8291L270.425 82.5609L269.869 85.8468L276.495 86.9494L273.591 93.0417L276.848 94.3998L279.613 88.1615L284.684 93.0116L286.88 90.6304L282.124 85.9522L288.079 82.6205L286.262 79.7551L280.447 83.2327Z" fill="#FF8500"/>
<path d="M49.9561 86.5588L46.9347 80.6134L43.887 82.1622L46.9085 88.1076L40.1711 88.8283L40.5937 92.134L47.255 91.2633L46.2459 97.9369L49.7571 98.2899L50.5901 91.5173L56.8517 94.6845L58.2612 91.7679L52.351 88.6735L57.081 83.7552L54.51 81.5413L49.9561 86.5588Z" fill="#FF8500"/>
<path d="M117.159 57.3273L118.109 52.8403L115.827 52.3574L114.877 56.8445L110.993 54.3287L109.798 56.2819L113.706 58.6846L110.306 61.8258L112.017 63.5273L115.367 60.2572L117.329 64.6513L119.329 63.6957L117.522 59.492L122.143 58.894L121.729 56.6004L117.159 57.3273Z" fill="#FFC10A"/>
<path d="M190.646 22.2004V15.5312H187.227V22.2004L180.894 19.7905L179.773 22.9289L186.106 25.1707L182.183 30.6629L185.154 32.5683L188.964 26.908L193.112 32.5683L195.69 30.6068L191.823 25.1707L198.268 22.9289L196.979 19.7905L190.646 22.2004Z" fill="#FFC10A"/>
<path d="M280.333 135.067V130.895H278.195V135.067L274.233 133.559L273.531 135.523L277.493 136.925L275.039 140.361L276.897 141.554L279.282 138.012L281.876 141.554L283.489 140.326L281.07 136.925L285.102 135.523L284.295 133.559L280.333 135.067Z" fill="#FFC10A"/>
<path d="M229.951 62.7514L226.898 61.6995C225.963 61.347 224.941 61.2706 223.952 61.4792C222.963 61.6879 222.047 62.1729 221.312 62.8776L215.89 68.286C215.717 68.4675 215.597 68.693 215.545 68.9366C215.493 69.1802 215.511 69.4319 215.595 69.663C215.68 69.9106 215.824 70.1321 216.017 70.3074C216.209 70.4828 216.444 70.6065 216.699 70.6674L224.062 72.3946" fill="#F1F1F1"/>
<path d="M229.951 62.7514L226.898 61.6995C225.963 61.347 224.941 61.2706 223.952 61.4792C222.963 61.6879 222.047 62.1729 221.312 62.8776L215.89 68.286C215.717 68.4675 215.597 68.693 215.545 68.9366C215.493 69.1802 215.511 69.4319 215.595 69.663C215.68 69.9106 215.824 70.1321 216.017 70.3074C216.209 70.4828 216.444 70.6065 216.699 70.6674L224.062 72.3946L229.951 62.7514Z" stroke="#9F9F9F" stroke-width="0.5" stroke-linecap="round" stroke-linejoin="round"/>
<path d="M241.995 74.7095L243.047 77.7624C243.399 78.697 243.476 79.719 243.267 80.7083C243.058 81.6976 242.573 82.6134 241.869 83.3482L236.46 88.7704C236.279 88.9434 236.053 89.0628 235.809 89.1148C235.566 89.1669 235.314 89.1495 235.083 89.0647C234.835 88.9806 234.614 88.8358 234.439 88.6432C234.263 88.4507 234.14 88.2164 234.079 87.9616L232.351 80.5978" fill="#F1F1F1"/>
<path d="M241.995 74.7095L243.047 77.7624C243.399 78.697 243.476 79.719 243.267 80.7083C243.058 81.6976 242.573 82.6134 241.869 83.3482L236.46 88.7704C236.279 88.9434 236.053 89.0628 235.809 89.1148C235.566 89.1669 235.314 89.1495 235.083 89.0647C234.835 88.9806 234.614 88.8358 234.439 88.6432C234.263 88.4507 234.14 88.2164 234.079 87.9616L232.351 80.5978L241.995 74.7095Z" stroke="#9F9F9F" stroke-width="0.5" stroke-linecap="round" stroke-linejoin="round"/>
<path d="M261.309 42.9513C261.417 42.9766 261.498 43.0713 261.502 43.1854L262.014 56.4105V56.4257C261.972 58.424 261.438 60.3806 260.459 62.1219C259.479 63.8631 258.086 65.3353 256.401 66.4087L256.396 66.4129L232.611 80.7622C232.512 80.8213 232.387 80.806 232.306 80.7249L223.711 72.1195C223.63 72.0381 223.614 71.9112 223.674 71.8129L238.035 48.0288L238.039 48.0233C239.116 46.3438 240.59 44.955 242.331 43.9802L242.66 43.8027C244.317 42.9411 246.151 42.4721 248.022 42.4334H248.037L261.262 42.9451L261.309 42.9513Z" fill="white" stroke="#9F9F9F" stroke-width="0.5" stroke-linecap="round" stroke-linejoin="round"/>
<path d="M261.251 43.1964L261.764 56.4215C261.764 56.4215 258.692 51.1874 255.976 48.472C253.261 45.7566 248.027 42.6842 248.027 42.6842L261.251 43.1964Z" fill="#F1F1F1"/>
<path d="M246.297 62.9176C248.935 62.9176 251.073 60.7792 251.073 58.1414C251.073 55.5035 248.935 53.3651 246.297 53.3651C243.659 53.3651 241.521 55.5035 241.521 58.1414C241.521 60.7792 243.659 62.9176 246.297 62.9176Z" fill="#F5F5F5" stroke="#9F9F9F" stroke-width="0.5" stroke-linecap="round" stroke-linejoin="round"/>
<path d="M225.247 79.1941C227.523 81.4704 227.523 85.1614 225.247 87.4377C224.7 87.9845 223.783 88.4009 222.676 88.7103C221.576 89.0178 220.322 89.2109 219.135 89.3304C217.949 89.4498 216.835 89.4954 216.018 89.5114C215.609 89.5193 215.274 89.5198 215.043 89.5183C214.999 89.518 214.959 89.5166 214.923 89.5162C214.923 89.4803 214.922 89.4407 214.922 89.3974C214.92 89.1658 214.922 88.8315 214.93 88.4231C214.945 87.6057 214.991 86.4921 215.11 85.306C215.23 84.1186 215.423 82.8645 215.731 81.765C216.04 80.6582 216.456 79.7411 217.003 79.1941C219.28 76.9178 222.97 76.9178 225.247 79.1941Z" fill="white" stroke="#9F9F9F" stroke-width="0.5"/>
<path d="M223.58 85.0329C222.427 86.186 218.36 86.0768 218.36 86.0768C218.36 86.0768 218.251 82.0104 219.404 80.8573C220.557 79.7043 222.427 79.7043 223.58 80.8573C224.733 82.0104 224.733 83.8799 223.58 85.0329Z" fill="#F1F1F1"/>
</svg>
