<?xml version="1.0" encoding="UTF-8" standalone="no"?>
<!DOCTYPE svg PUBLIC "-//W3C//DTD SVG 1.1//EN" "http://www.w3.org/Graphics/SVG/1.1/DTD/svg11.dtd">
<!-- Created with Vectornator (http://vectornator.io/) -->
<svg height="100.0pt" stroke-miterlimit="10" style="fill-rule:nonzero;clip-rule:evenodd;stroke-linecap:round;stroke-linejoin:round;" version="1.1" viewBox="0 0 137 100" width="137.0pt" xml:space="preserve" xmlns="http://www.w3.org/2000/svg" xmlns:xlink="http://www.w3.org/1999/xlink">
<defs/>
<g id="Sans-titre">
<path d="M91.489 56.4961L35.2114 56.4961C34.8448 56.4971 34.4936 56.6427 34.2344 56.901C33.9752 57.1593 33.8291 57.5093 33.8281 57.8746L33.8281 95.1502L92.8756 95.1502L92.8756 57.8746C92.8745 57.5087 92.728 57.1582 92.4681 56.8998C92.2082 56.6414 91.8561 56.4962 91.489 56.4961Z" fill="#4c4c4c" fill-rule="nonzero" opacity="1" stroke="none"/>
<path d="M26.7031 96.4325L100.005 96.4325L100.005 95.1523L26.7031 95.1523L26.7031 96.4325Z" fill="#3e3e3e" fill-rule="nonzero" opacity="1" stroke="none"/>
<path d="M26.7031 96.4258C28.3162 96.688 29.9482 96.8175 31.5826 96.8131L95.1285 96.8131C96.7629 96.8175 98.3949 96.688 100.008 96.4258L26.7031 96.4258Z" fill="#4c4c4c" fill-rule="nonzero" opacity="1" stroke="none"/>
<path d="M58.0859 95.1523L58.0859 95.3949C58.0862 95.5167 58.1349 95.6334 58.2213 95.7195C58.3077 95.8056 58.4248 95.8541 58.547 95.8544L68.124 95.8544C68.2462 95.8541 68.3633 95.8056 68.4497 95.7195C68.5361 95.6334 68.5848 95.5167 68.5851 95.3949L68.5851 95.1523L58.0859 95.1523Z" fill="#9f9f9f" fill-rule="nonzero" opacity="1" stroke="none"/>
<path d="M91.029 58.332L35.6719 58.332L35.6719 70.8437L36.1988 92.907L90.7773 93.1212L91.0295 77.1531L91.029 58.332Z" fill="#1a1a1a" fill-rule="nonzero" opacity="1" stroke="none"/>
<path d="M71.0788 62.8438L49.1484 62.8438L49.1484 64.4828L71.0788 64.4828L71.0788 62.8438Z" fill="#3e3e3e" fill-rule="nonzero" opacity="1" stroke="none"/>
<path d="M65.0479 66.668L49.1484 66.668L49.1484 68.3071L65.0479 68.3071L65.0479 66.668Z" fill="#3e3e3e" fill-rule="nonzero" opacity="1" stroke="none"/>
<path d="M49.5408 59.8281L24.8653 59.8281C24.5223 59.8287 24.1935 59.9646 23.9508 60.2062C23.7081 60.4477 23.5713 60.7752 23.5703 61.117L23.5703 95.5302C23.5713 95.8719 23.708 96.1993 23.9504 96.4409C24.1928 96.6825 24.5214 96.8186 24.8642 96.8196L49.5413 96.8196C49.8841 96.8185 50.2124 96.6823 50.4548 96.4407C50.6971 96.1991 50.8336 95.8718 50.8346 95.5302L50.8346 61.117C50.8336 60.7754 50.697 60.4481 50.4545 60.2065C50.2121 59.965 49.8836 59.829 49.5408 59.8281" fill="#4c4c4c" fill-rule="nonzero" opacity="1" stroke="none"/>
<path d="M49.1279 61.0938L25.2512 61.0938C25.1369 61.094 25.0274 61.1395 24.9467 61.22C24.8659 61.3006 24.8205 61.4098 24.8203 61.5237L24.8203 95.1251C24.8205 95.239 24.8659 95.3482 24.9467 95.4288C25.0274 95.5094 25.1369 95.5548 25.2512 95.5551L49.1279 95.5551C49.2422 95.5548 49.3517 95.5094 49.4325 95.4288C49.5133 95.3482 49.5587 95.239 49.5588 95.1251L49.5588 61.5232C49.5585 61.4094 49.513 61.3003 49.4323 61.2198C49.3515 61.1394 49.2421 61.094 49.1279 61.0938Z" fill="#1a1a1a" fill-rule="nonzero" opacity="1" stroke="none"/>
<path d="M53.519 73.1172L44.1054 73.1172C43.6736 73.1178 43.2596 73.289 42.9543 73.5933C42.6489 73.8976 42.4771 74.3101 42.4766 74.7404L42.4766 98.3761C42.4771 98.8064 42.6489 99.219 42.9543 99.5233C43.2596 99.8276 43.6736 99.9988 44.1054 99.9993L53.5185 99.9993C53.9503 99.9988 54.3643 99.8276 54.6696 99.5233C54.975 99.219 55.1468 98.8064 55.1474 98.3761L55.1474 74.7404C55.1468 74.3102 54.9751 73.8977 54.6698 73.5935C54.3646 73.2892 53.9508 73.1179 53.519 73.1172Z" fill="#4c4c4c" fill-rule="nonzero" opacity="1" stroke="none"/>
<path d="M44.1036 99.5331C43.7949 99.5331 43.4988 99.4111 43.2802 99.1939C43.0616 98.9767 42.9384 98.6819 42.9375 98.3743L42.9375 74.737C42.9385 74.4294 43.0618 74.1347 43.2804 73.9175C43.4989 73.7003 43.795 73.5783 44.1036 73.5781L45.4162 73.5781L45.4162 73.6732C45.4162 73.919 45.5139 74.1547 45.688 74.3288C45.8621 74.5029 46.0983 74.6011 46.3449 74.602L51.271 74.602C51.518 74.6013 51.7546 74.5032 51.9293 74.3292C52.1039 74.1551 52.2023 73.9193 52.2031 73.6732L52.2031 73.5781L53.5151 73.5781C53.8233 73.5787 54.1188 73.701 54.3369 73.9181C54.5549 74.1353 54.6777 74.4297 54.6785 74.737L54.6785 98.3743C54.6777 98.6815 54.5549 98.9759 54.3369 99.1931C54.1188 99.4103 53.8233 99.5325 53.5151 99.5331L44.1036 99.5331Z" fill="#1a1a1a" fill-rule="nonzero" opacity="1" stroke="none"/>
<path d="M43.6821 63.9453L27.2344 63.9453L27.2344 65.038L43.6821 65.038L43.6821 63.9453Z" fill="#3e3e3e" fill-rule="nonzero" opacity="1" stroke="none"/>
<path d="M38.7478 66.6758L27.2344 66.6758L27.2344 67.7685L38.7478 67.7685L38.7478 66.6758Z" fill="#3e3e3e" fill-rule="nonzero" opacity="1" stroke="none"/>
<path d="M52.4569 76.5117L44.7812 76.5117L44.7812 77.0581L52.4569 77.0581L52.4569 76.5117Z" fill="#3e3e3e" fill-rule="nonzero" opacity="1" stroke="none"/>
<path d="M50.264 78.1445L44.7812 78.1445L44.7812 78.6909L50.264 78.6909L50.264 78.1445Z" fill="#3e3e3e" fill-rule="nonzero" opacity="1" stroke="none"/>
<path d="M83.0186 48.5234L97.2581 48.5234C98.5629 48.5234 99.6206 49.5811 99.6206 50.8858L99.6206 65.0605C99.6206 66.3653 98.5629 67.423 97.2581 67.423L83.0186 67.423C81.7139 67.423 80.6562 66.3653 80.6562 65.0605L80.6562 50.8858C80.6562 49.5811 81.7139 48.5234 83.0186 48.5234Z" fill="#3dbd86" fill-rule="nonzero" opacity="1" stroke="none"/>
<path d="M88.4648 51.7034C88.0669 51.5818 87.6641 51.8773 87.6641 52.2907L87.6641 54.6166L92.1774 55.9958C92.437 56.0752 92.6142 56.3134 92.6142 56.5832L92.6142 60.0387L94.9073 60.7395C95.3052 60.8611 95.708 60.5656 95.708 60.1521L95.708 54.3708C95.708 54.101 95.5308 53.8627 95.2712 53.7834L88.4648 51.7034Z" fill="#7adbae" fill-rule="nonzero" opacity="0.24" stroke="none"/>
<path d="M86.9179 52.6838C86.52 52.5622 86.1172 52.8577 86.1172 53.2712L86.1172 54.141L92.1775 55.993C92.4371 56.0723 92.6143 56.3106 92.6143 56.5803L92.6143 61.4919L93.3604 61.7199C93.7583 61.8415 94.1611 61.546 94.1611 61.1326L94.1611 55.3512C94.1611 55.0814 93.9839 54.8432 93.7243 54.7639L86.9179 52.6838Z" fill="#7adbae" fill-rule="nonzero" opacity="0.8" stroke="none"/>
<path d="M85.371 53.9143C84.9731 53.7927 84.5703 54.0882 84.5703 54.5017L84.5703 60.2893C84.5703 60.5561 84.7436 60.7924 84.9992 60.8742L87.5677 61.6965C87.6303 61.7165 87.6849 61.7559 87.7235 61.8089L89.4244 64.1462C89.6002 64.3877 89.9845 64.2642 89.9845 63.9662L89.9845 62.3986L91.815 62.953C92.2126 63.0734 92.6142 62.778 92.6142 62.3652L92.6142 56.5817C92.6142 56.3119 92.4371 56.0737 92.1774 55.9943L85.371 53.9143ZM89.1396 56.9426C89.2853 56.9845 89.4034 57.1343 89.4034 57.2771L89.4034 57.9386L90.6689 57.5735C90.7038 57.5635 90.7451 57.5775 90.7783 57.6107C90.8114 57.6438 90.8315 57.6913 90.8315 57.7362L90.8315 60.506C90.8315 60.5508 90.8113 60.5866 90.7782 60.6007C90.7451 60.6147 90.7037 60.6049 90.6689 60.5748L89.4034 59.5527L89.4034 60.1224C89.4034 60.2652 89.2853 60.347 89.1396 60.3051L86.2997 59.4883C86.154 59.4464 86.0359 59.2967 86.0359 59.1538L86.0359 56.3086C86.0359 56.1657 86.154 56.0839 86.2997 56.1258L89.1396 56.9426Z" fill="#afebcb" fill-rule="evenodd" opacity="1" stroke="none"/>
<path d="M89.1428 56.945C89.2885 56.9869 89.4066 57.1366 89.4066 57.2795L89.4066 57.941L90.6721 57.5759C90.7069 57.5658 90.7483 57.5799 90.7814 57.613C90.8146 57.6462 90.8347 57.6937 90.8347 57.7385L90.8347 60.5083C90.8347 60.5532 90.8145 60.589 90.7814 60.603C90.7483 60.6171 90.7069 60.6073 90.6721 60.5772L89.4066 59.555L89.4066 60.1247C89.4066 60.2676 89.2885 60.3494 89.1428 60.3075L86.3029 59.4907C86.1572 59.4488 86.0391 59.299 86.0391 59.1562L86.0391 56.3109C86.0391 56.1681 86.1572 56.0863 86.3029 56.1282L89.1428 56.945Z" fill="#ffffff" fill-rule="nonzero" opacity="1" stroke="none"/>
<path d="M93.4375 51.6602L94.7019 51.6602L94.7019 53.9445L95.6259 52.8809L97.1487 52.8809L95.9907 54.0049L97.2156 56.0898L95.8204 56.0898L95.167 54.8026L94.7019 55.2558L94.7019 56.0898L93.4375 56.0898L93.4375 51.6602Z" fill="#ffffff" fill-rule="nonzero" opacity="1" stroke="none"/>
<path d="M131.089 39.9849L130.399 36.1064L128.404 36.4586L129.094 40.3371L125.149 39.5881L124.819 41.5287L128.747 42.18L127.025 45.7782L128.956 46.5803L130.594 42.8958L133.6 45.7604L134.901 44.354L132.083 41.591L135.612 39.6233L134.535 37.9309L131.089 39.9849Z" fill="#ffaa4c" fill-rule="nonzero" opacity="1" stroke="none"/>
<path d="M7.53476 41.946L5.74413 38.4346L3.93799 39.3493L5.72861 42.8608L1.73577 43.2864L1.98624 45.2388L5.93394 44.7246L5.33594 48.6661L7.41682 48.8746L7.91046 44.8745L11.6213 46.7452L12.4566 45.0226L8.95405 43.195L11.7572 40.2902L10.2335 38.9826L7.53476 41.946Z" fill="#ffaa4c" fill-rule="nonzero" opacity="1" stroke="none"/>
<path d="M34.3163 24.6821L34.8789 22.0319L33.5266 21.7468L32.9639 24.3969L30.6622 22.911L29.954 24.0646L32.27 25.4837L30.2547 27.3389L31.2689 28.3439L33.254 26.4125L34.417 29.0077L35.6022 28.4433L34.5312 25.9605L37.2698 25.6074L37.0247 24.2527L34.3163 24.6821Z" fill="#ffdf9e" fill-rule="nonzero" opacity="1" stroke="none"/>
<path d="M77.8652 3.93887L77.8652 0L75.8392 0L75.8392 3.93887L72.0861 2.51558L71.4219 4.36917L75.1749 5.69316L72.85 8.93694L74.6103 10.0623L76.8688 6.71925L79.3266 10.0623L80.8544 8.90384L78.5627 5.69316L82.3822 4.36917L81.6183 2.51558L77.8652 3.93887Z" fill="#ffdf9e" fill-rule="nonzero" opacity="1" stroke="none"/>
<path d="M131.031 70.5971L131.031 68.1328L129.764 68.1328L129.764 70.5971L127.416 69.7067L127 70.8663L129.348 71.6947L127.894 73.7241L128.995 74.4282L130.408 72.3366L131.946 74.4282L132.901 73.7034L131.468 71.6947L133.857 70.8663L133.379 69.7067L131.031 70.5971Z" fill="#ffdf9e" fill-rule="nonzero" opacity="1" stroke="none"/>
<path d="M101.167 27.889L99.3579 27.2677C98.804 27.0595 98.1983 27.0143 97.612 27.1376C97.0257 27.2608 96.483 27.5473 96.0475 27.9635L92.8341 31.1578C92.7316 31.265 92.6609 31.3982 92.63 31.542C92.5992 31.6859 92.6095 31.8346 92.6597 31.971C92.7095 32.1173 92.7954 32.2481 92.9095 32.3516C93.0236 32.4552 93.1624 32.5282 93.3134 32.5642L97.6775 33.5844" fill="#3e3e3e" fill-rule="nonzero" opacity="1" stroke="#9f9f9f" stroke-linecap="round" stroke-linejoin="round" stroke-width="0.295307"/>
<path d="M108.294 34.9509L108.917 36.7539C109.126 37.306 109.171 37.9095 109.048 38.4938C108.924 39.0781 108.637 39.619 108.219 40.053L105.014 43.2554C104.906 43.3576 104.773 43.4281 104.628 43.4589C104.484 43.4896 104.335 43.4793 104.198 43.4292C104.051 43.3796 103.92 43.294 103.816 43.1803C103.712 43.0666 103.639 42.9282 103.603 42.7777L102.579 38.4286" fill="#3e3e3e" fill-rule="nonzero" opacity="1" stroke="#9f9f9f" stroke-linecap="round" stroke-linejoin="round" stroke-width="0.295307"/>
<path d="M121.848 13.9978C121.906 13.9402 121.999 13.9402 122.057 13.9978C122.115 14.0554 122.115 14.1484 122.057 14.206L119.862 16.3933L120.163 24.1409L120.164 24.1499L120.162 24.1499C120.137 25.33 119.821 26.4856 119.241 27.5139C118.661 28.5424 117.834 29.412 116.836 30.0459L116.833 30.048L102.737 38.5236C102.679 38.5584 102.604 38.5493 102.556 38.5015L97.4631 33.4189C97.4152 33.3711 97.4061 33.2963 97.441 33.2383L105.952 19.1907L105.954 19.1873L105.955 19.1866C106.593 18.1949 107.467 17.375 108.498 16.7993C109.53 16.2237 110.688 15.9096 111.871 15.8853L111.88 15.8859L119.653 16.1851L121.848 13.9978Z" fill="#1a1a1a" fill-rule="nonzero" opacity="1" stroke="#9f9f9f" stroke-linecap="round" stroke-linejoin="round" stroke-width="0.295307"/>
<path d="M119.711 16.3377L120.015 24.1487C120.015 24.1487 118.194 21.0573 116.585 19.4536C114.976 17.8498 111.874 16.0352 111.874 16.0352L119.711 16.3377Z" fill="#3e3e3e" fill-rule="nonzero" opacity="1" stroke="none"/>
<path d="M110.852 27.9822C112.415 27.9822 113.682 26.7192 113.682 25.1613C113.682 23.6033 112.415 22.3403 110.852 22.3403C109.288 22.3403 108.021 23.6033 108.021 25.1613C108.021 26.7192 109.288 27.9822 110.852 27.9822Z" fill="#3e3e3e" fill-rule="nonzero" opacity="1" stroke="#9f9f9f" stroke-linecap="round" stroke-linejoin="round" stroke-width="0.295307"/>
<path d="M98.3806 37.6C99.7296 38.9445 99.729 41.1244 98.3799 42.4689C98.0557 42.7919 97.512 43.0382 96.8561 43.221C96.2045 43.4025 95.4618 43.5164 94.7581 43.587C94.0552 43.6575 93.395 43.6845 92.9106 43.6939C92.6687 43.6986 92.4709 43.6989 92.3337 43.698C92.3079 43.6978 92.2838 43.6962 92.2624 43.6959C92.2622 43.6749 92.2619 43.6516 92.2617 43.6263C92.2608 43.4895 92.2605 43.292 92.2652 43.0507C92.2746 42.5679 92.3016 41.91 92.3724 41.2095C92.4432 40.5082 92.5576 39.768 92.7397 39.1186C92.9231 38.465 93.1702 37.9231 93.4944 37.6C94.8435 36.2555 97.0315 36.2555 98.3806 37.6Z" fill="#1a1a1a" fill-rule="nonzero" opacity="1" stroke="#9f9f9f" stroke-linecap="butt" stroke-linejoin="miter" stroke-width="0.295307"/>
<path d="M97.3857 41.043C96.7024 41.724 94.2925 41.6595 94.2925 41.6595C94.2925 41.6595 94.2278 39.2578 94.9111 38.5768C95.5945 37.8958 96.7024 37.8958 97.3857 38.5768C98.0691 39.2578 98.0691 40.362 97.3857 41.043Z" fill="#3e3e3e" fill-rule="nonzero" opacity="1" stroke="none"/>
</g>
</svg>
