<svg width="137" height="100" viewBox="0 0 137 100" fill="none" xmlns="http://www.w3.org/2000/svg">
<path d="M91.7254 56.3984H35.5144C35.1483 56.3994 34.7975 56.5453 34.5386 56.8042C34.2797 57.0631 34.1338 57.4139 34.1328 57.78V95.1391H93.1103V57.78C93.1093 57.4133 92.9629 57.062 92.7034 56.803C92.4438 56.5441 92.0921 56.3986 91.7254 56.3984Z" fill="#E0E0E0"/>
<path d="M27.0078 96.4236H100.223V95.1406H27.0078V96.4236Z" fill="#F5F5F5"/>
<path d="M27.0078 96.4219C28.619 96.6847 30.2491 96.8145 31.8815 96.8101H95.3522C96.9846 96.8145 98.6147 96.6847 100.226 96.4219H27.0078Z" fill="#E0E0E0"/>
<path d="M58.3672 95.1406V95.3838C58.3675 95.5058 58.4161 95.6228 58.5024 95.7091C58.5887 95.7954 58.7057 95.844 58.8277 95.8443H68.3934C68.5154 95.844 68.6324 95.7954 68.7187 95.7091C68.805 95.6228 68.8536 95.5058 68.8539 95.3838V95.1406H58.3672Z" fill="#EAEAEA"/>
<path d="M91.2525 58.2422H35.9609V70.7819L36.4872 92.8945L91.0011 93.1092L91.253 77.1054L91.2525 58.2422Z" fill="white"/>
<path d="M71.334 62.7617H49.4297V64.4045H71.334V62.7617Z" fill="#F5F5F5"/>
<path d="M65.3104 66.5977H49.4297V68.2404H65.3104V66.5977Z" fill="#F5F5F5"/>
<path d="M49.8147 59.7383H25.1685C24.8259 59.7389 24.4975 59.8751 24.2551 60.1172C24.0127 60.3592 23.876 60.6875 23.875 61.03V95.5203C23.876 95.8627 24.0125 96.1908 24.2546 96.433C24.4968 96.6751 24.8249 96.8116 25.1674 96.8126H49.8152C50.1576 96.8114 50.4856 96.6749 50.7276 96.4328C50.9696 96.1906 51.106 95.8626 51.107 95.5203V61.03C51.106 60.6877 50.9695 60.3596 50.7274 60.1176C50.4852 59.8755 50.1571 59.7391 49.8147 59.7383" fill="#E0E0E0"/>
<path d="M49.4038 61.0078H25.5554C25.4413 61.0081 25.3319 61.0536 25.2512 61.1344C25.1705 61.2152 25.1251 61.3246 25.125 61.4388V95.1153C25.1251 95.2294 25.1705 95.3389 25.2512 95.4197C25.3319 95.5004 25.4413 95.546 25.5554 95.5462H49.4038C49.518 95.546 49.6274 95.5004 49.708 95.4197C49.7887 95.3389 49.8341 95.2294 49.8342 95.1153V61.4382C49.8339 61.3242 49.7885 61.2148 49.7078 61.1342C49.6272 61.0535 49.5179 61.0081 49.4038 61.0078Z" fill="white"/>
<path d="M53.795 73.0586H44.3926C43.9613 73.0592 43.5478 73.2308 43.2428 73.5357C42.9378 73.8407 42.7662 74.2542 42.7656 74.6855V98.374C42.7662 98.8053 42.9378 99.2188 43.2428 99.5238C43.5478 99.8288 43.9613 100 44.3926 100.001H53.7945C54.2258 100 54.6393 99.8288 54.9443 99.5238C55.2492 99.2188 55.4208 98.8053 55.4214 98.374V74.6855C55.4208 74.2543 55.2493 73.8409 54.9445 73.5359C54.6396 73.231 54.2262 73.0593 53.795 73.0586Z" fill="#E0E0E0"/>
<path d="M44.3913 99.5326C44.083 99.5326 43.7872 99.4103 43.5689 99.1926C43.3505 98.9749 43.2274 98.6795 43.2266 98.3712V74.681C43.2276 74.3727 43.3507 74.0774 43.569 73.8597C43.7873 73.642 44.083 73.5197 44.3913 73.5195H45.7023V73.6148C45.7023 73.8611 45.7999 74.0974 45.9738 74.2719C46.1477 74.4464 46.3836 74.5448 46.63 74.5457H51.5502C51.7969 74.545 52.0333 74.4467 52.2077 74.2723C52.3821 74.0978 52.4804 73.8615 52.4812 73.6148V73.5195H53.7916C54.0995 73.5201 54.3946 73.6426 54.6124 73.8603C54.8302 74.078 54.9529 74.3731 54.9536 74.681V98.3712C54.9529 98.6791 54.8302 98.9742 54.6124 99.1918C54.3946 99.4095 54.0995 99.532 53.7916 99.5326H44.3913Z" fill="white"/>
<path d="M43.9673 63.8633H27.5391V64.9585H43.9673V63.8633Z" fill="#F5F5F5"/>
<path d="M39.0389 66.6016H27.5391V67.6967H39.0389V66.6016Z" fill="#F5F5F5"/>
<path d="M52.729 76.4609H45.0625V77.0085H52.729V76.4609Z" fill="#F5F5F5"/>
<path d="M50.5387 78.0977H45.0625V78.6453H50.5387V78.0977Z" fill="#F5F5F5"/>
<rect x="80.9062" y="50.5938" width="18.9419" height="18.9419" rx="2.36774" fill="#3DBD86"/>
<path opacity="0.24" d="M88.706 53.7816C88.3086 53.6597 87.9062 53.9559 87.9062 54.3702V56.7013L92.4142 58.0836C92.6735 58.1631 92.8505 58.4019 92.8505 58.6723V62.1355L95.1409 62.8379C95.5383 62.9597 95.9406 62.6636 95.9406 62.2492V56.4549C95.9406 56.1845 95.7637 55.9457 95.5044 55.8662L88.706 53.7816Z" fill="#7ADBAE"/>
<path opacity="0.8" d="M87.1592 54.7659C86.7617 54.6441 86.3594 54.9402 86.3594 55.3546V56.2263L92.4125 58.0825C92.6718 58.162 92.8488 58.4008 92.8488 58.6712V63.5937L93.594 63.8222C93.9914 63.9441 94.3938 63.648 94.3938 63.2336V57.4393C94.3938 57.1689 94.2168 56.9301 93.9575 56.8506L87.1592 54.7659Z" fill="#7ADBAE"/>
<path fill-rule="evenodd" clip-rule="evenodd" d="M85.6123 55.9964C85.2149 55.8745 84.8125 56.1707 84.8125 56.5851V62.3857C84.8125 62.653 84.9856 62.8899 85.2409 62.9719L87.8063 63.796C87.8689 63.8161 87.9234 63.8556 87.962 63.9087L89.6608 66.2511C89.8364 66.4932 90.2203 66.3695 90.2203 66.0707V64.4997L92.0486 65.0553C92.4457 65.176 92.8469 64.88 92.8469 64.4662V58.6698C92.8469 58.3994 92.6699 58.1606 92.4106 58.0811L85.6123 55.9964ZM89.3764 59.0315C89.5219 59.0735 89.6399 59.2236 89.6399 59.3667V60.0297L90.9039 59.6638C90.9387 59.6537 90.98 59.6678 91.0131 59.701C91.0462 59.7342 91.0663 59.7819 91.0662 59.8268V62.6028C91.0662 62.6477 91.0461 62.6837 91.013 62.6977C90.9799 62.7118 90.9386 62.702 90.9039 62.6718L89.6399 61.6474V62.2183C89.6399 62.3615 89.5219 62.4435 89.3764 62.4015L86.5398 61.5829C86.3943 61.5409 86.2763 61.3908 86.2763 61.2476V58.396C86.2763 58.2529 86.3943 58.1708 86.5398 58.2128L89.3764 59.0315Z" fill="#AFEBCB"/>
<path d="M89.3813 59.0327C89.5268 59.0747 89.6448 59.2248 89.6448 59.368V60.031L90.9088 59.6651C90.9436 59.655 90.9849 59.6691 91.018 59.7023C91.0511 59.7355 91.0712 59.7831 91.0712 59.8281V62.6041C91.0712 62.649 91.051 62.6849 91.0179 62.699C90.9849 62.7131 90.9436 62.7033 90.9088 62.6731L89.6448 61.6487V62.2196C89.6448 62.3628 89.5268 62.4448 89.3813 62.4028L86.5447 61.5842C86.3992 61.5422 86.2812 61.3921 86.2812 61.2489V58.3973C86.2812 58.2541 86.3992 58.1721 86.5447 58.2141L89.3813 59.0327Z" fill="white"/>
<path d="M93.6719 53.7383H94.9348V56.0277L95.8577 54.9617H97.3787L96.222 56.0883L97.4455 58.1778H96.052L95.3993 56.8877L94.9348 57.342V58.1778H93.6719V53.7383Z" fill="white"/>
<path d="M131.089 39.9849L130.399 36.1064L128.404 36.4586L129.094 40.3371L125.149 39.5881L124.819 41.5287L128.747 42.18L127.025 45.7782L128.956 46.5803L130.594 42.8958L133.6 45.7604L134.901 44.354L132.083 41.591L135.612 39.6233L134.535 37.9309L131.089 39.9849Z" fill="#FF8500"/>
<path d="M7.53476 41.946L5.74413 38.4346L3.93799 39.3493L5.72861 42.8608L1.73577 43.2864L1.98624 45.2388L5.93394 44.7246L5.33594 48.6661L7.41682 48.8746L7.91046 44.8745L11.6213 46.7452L12.4566 45.0226L8.95405 43.195L11.7572 40.2902L10.2335 38.9826L7.53476 41.946Z" fill="#FF8500"/>
<path d="M34.3163 24.6821L34.8789 22.0319L33.5266 21.7468L32.9639 24.3969L30.6622 22.911L29.954 24.0646L32.27 25.4837L30.2547 27.3389L31.2689 28.3439L33.254 26.4125L34.417 29.0077L35.6022 28.4433L34.5312 25.9605L37.2698 25.6074L37.0247 24.2527L34.3163 24.6821Z" fill="#FFC10A"/>
<path d="M77.8652 3.93887V0H75.8392V3.93887L72.0861 2.51558L71.4219 4.36917L75.1749 5.69316L72.85 8.93694L74.6103 10.0623L76.8688 6.71925L79.3266 10.0623L80.8544 8.90384L78.5627 5.69316L82.3822 4.36917L81.6183 2.51558L77.8652 3.93887Z" fill="#FFC10A"/>
<path d="M131.031 70.5971V68.1328H129.764V70.5971L127.416 69.7067L127 70.8663L129.348 71.6947L127.894 73.7241L128.995 74.4282L130.408 72.3366L131.946 74.4282L132.901 73.7034L131.468 71.6947L133.857 70.8663L133.379 69.7067L131.031 70.5971Z" fill="#FFC10A"/>
<path d="M101.383 27.9454L99.5758 27.3227C99.0225 27.114 98.4176 27.0688 97.832 27.1923C97.2464 27.3158 96.7043 27.6029 96.2694 28.0201L93.0598 31.2215C92.9574 31.3289 92.8867 31.4624 92.8559 31.6066C92.8251 31.7508 92.8353 31.8998 92.8856 32.0366C92.9353 32.1832 93.021 32.3143 93.135 32.418C93.249 32.5218 93.3877 32.595 93.5385 32.6311L97.8974 33.6535" fill="#F1F1F1" stroke="#9F9F9F" stroke-width="0.295967" stroke-linecap="round" stroke-linejoin="round"/>
<path d="M108.508 35.0273L109.13 36.8344C109.339 37.3876 109.384 37.9925 109.261 38.5782C109.137 39.1638 108.85 39.7058 108.433 40.1408L105.232 43.3504C105.124 43.4528 104.991 43.5235 104.847 43.5543C104.702 43.5851 104.553 43.5748 104.417 43.5246C104.27 43.4748 104.139 43.3891 104.035 43.2751C103.931 43.1611 103.858 43.0225 103.822 42.8717L102.8 38.5128" fill="#F1F1F1" stroke="#9F9F9F" stroke-width="0.295967" stroke-linecap="round" stroke-linejoin="round"/>
<path d="M122.045 14.0293C122.103 13.9715 122.196 13.9709 122.254 14.0286C122.312 14.0864 122.312 14.1807 122.254 14.2385L120.061 16.4316L120.362 24.1946V24.2043C120.337 25.387 120.02 26.5448 119.441 27.5755C118.861 28.6062 118.036 29.4784 117.039 30.1139L117.036 30.1159L102.957 38.6095C102.899 38.6446 102.824 38.6355 102.776 38.5874L97.6891 33.4933C97.641 33.4452 97.6318 33.3706 97.667 33.3124L106.167 19.2338L106.17 19.2304C106.807 18.2362 107.68 17.414 108.711 16.837C109.741 16.2601 110.898 15.9458 112.079 15.9213L112.088 15.9206L112.089 15.9213L119.852 16.2217L122.045 14.0293Z" fill="white" stroke="#9F9F9F" stroke-width="0.295967" stroke-linecap="round" stroke-linejoin="round"/>
<path d="M119.909 16.3703L120.213 24.1987C120.213 24.1987 118.394 21.1004 116.787 19.4931C115.18 17.8857 112.081 16.0671 112.081 16.0671L119.909 16.3703Z" fill="#F1F1F1"/>
<path d="M111.055 28.0482C112.616 28.0482 113.882 26.7824 113.882 25.221C113.882 23.6595 112.616 22.3937 111.055 22.3937C109.493 22.3937 108.227 23.6595 108.227 25.221C108.227 26.7824 109.493 28.0482 111.055 28.0482Z" fill="#F5F5F5" stroke="#9F9F9F" stroke-width="0.295967" stroke-linecap="round" stroke-linejoin="round"/>
<path d="M98.5959 37.6808C99.9431 39.0283 99.9433 41.2128 98.5959 42.5601C98.2722 42.8837 97.7295 43.1304 97.0747 43.3135C96.424 43.4954 95.6816 43.6094 94.9789 43.6802C94.2767 43.7509 93.617 43.7778 93.1331 43.7872C92.8914 43.7919 92.6936 43.7929 92.5565 43.7921C92.5309 43.7919 92.5073 43.7909 92.4861 43.7907C92.4858 43.7694 92.4848 43.7459 92.4847 43.7202C92.4838 43.5831 92.4841 43.3848 92.4888 43.143C92.4983 42.6591 92.5259 41.9999 92.5965 41.2978C92.6673 40.595 92.7813 39.8529 92.9632 39.2021C93.1464 38.5471 93.393 38.0046 93.7166 37.6808C95.064 36.3334 97.2485 36.3334 98.5959 37.6808Z" fill="white" stroke="#9F9F9F" stroke-width="0.295967"/>
<path d="M97.6108 41.1372C96.9283 41.8198 94.5212 41.7551 94.5212 41.7551C94.5212 41.7551 94.4566 39.3481 95.1392 38.6655C95.8217 37.983 96.9283 37.983 97.6108 38.6655C98.2934 39.3481 98.2934 40.4547 97.6108 41.1372Z" fill="#F1F1F1"/>
</svg>
