<svg width="1024" height="1024" viewBox="0 0 1024 1024" fill="none" xmlns="http://www.w3.org/2000/svg">
<path d="M458.05 456.181C465.916 458.452 472.293 466.566 472.293 474.306V510.145L540.627 490.366C542.508 489.821 544.742 490.582 546.531 492.378C548.319 494.173 549.407 496.747 549.404 499.178V649.248C549.404 651.677 548.315 653.619 546.527 654.379C544.738 655.14 542.506 654.611 540.627 652.979L472.293 597.598V628.463C472.293 636.203 465.916 640.637 458.05 638.367L304.704 594.112C296.838 591.842 290.461 583.727 290.461 575.987V421.83C290.461 414.09 296.838 409.656 304.704 411.926L458.05 456.181Z" fill="white"/>
</svg>
