<svg width="327" height="200" viewBox="0 0 327 200" fill="none" xmlns="http://www.w3.org/2000/svg">
<path d="M218.617 104H106.902C106.174 104.002 105.477 104.287 104.963 104.792C104.448 105.297 104.158 105.981 104.156 106.696V179.585H221.37V106.696C221.368 105.98 221.077 105.295 220.561 104.789C220.045 104.284 219.346 104 218.617 104Z" fill="#E0E0E0"/>
<path d="M90.2422 182.024H235.766V179.586H90.2422V182.024Z" fill="#F5F5F5"/>
<path d="M90.2422 182.023C93.4445 182.683 96.6843 183.01 99.9289 182.998H226.079C229.324 183.01 232.563 182.683 235.766 182.023H90.2422Z" fill="#E0E0E0"/>
<path d="M152.672 179.703V180.178C152.672 180.417 152.769 180.645 152.941 180.814C153.113 180.983 153.346 181.078 153.589 181.078H172.629C172.872 181.078 173.104 180.983 173.276 180.814C173.448 180.645 173.545 180.417 173.545 180.178V179.703H152.672Z" fill="#EAEAEA"/>
<rect x="106.359" y="106.508" width="112.525" height="70.906" rx="0.702209" fill="white"/>
<path opacity="0.289597" fill-rule="evenodd" clip-rule="evenodd" d="M158.25 131.61C158.25 130.787 159.048 130.2 159.837 130.442L173.325 134.578C173.839 134.735 174.19 135.209 174.19 135.746V147.242C174.19 148.064 173.392 148.651 172.604 148.41L159.116 144.274C158.601 144.116 158.25 143.642 158.25 143.106V131.61Z" fill="#3DBD86"/>
<path opacity="0.800316" fill-rule="evenodd" clip-rule="evenodd" d="M155.188 133.563C155.188 132.741 155.986 132.153 156.774 132.395L170.262 136.531C170.777 136.689 171.128 137.162 171.128 137.699V149.195C171.128 150.017 170.33 150.605 169.541 150.363L156.053 146.227C155.539 146.069 155.188 145.595 155.188 145.059V133.563Z" fill="#83D5B1"/>
<path fill-rule="evenodd" clip-rule="evenodd" d="M152.117 136.004C152.117 135.182 152.915 134.594 153.704 134.836L167.192 138.972C167.707 139.13 168.058 139.604 168.058 140.14V151.64C168.058 152.461 167.262 153.049 166.474 152.809L162.846 151.707V154.824C162.846 155.417 162.085 155.662 161.736 155.182L158.366 150.534C158.289 150.429 158.181 150.351 158.057 150.311L152.967 148.676C152.461 148.513 152.117 148.043 152.117 147.513V136.004Z" fill="#3DBD86"/>
<path fill-rule="evenodd" clip-rule="evenodd" d="M161.697 141.526C161.697 141.242 161.463 140.944 161.174 140.861L155.546 139.237C155.257 139.153 155.023 139.316 155.023 139.6V145.258C155.023 145.542 155.257 145.84 155.546 145.923L161.174 147.547C161.463 147.63 161.697 147.468 161.697 147.184V146.051L164.205 148.083C164.274 148.143 164.356 148.163 164.421 148.135C164.487 148.107 164.527 148.036 164.527 147.946V142.439C164.527 142.35 164.487 142.255 164.421 142.189C164.356 142.123 164.274 142.095 164.205 142.115L161.697 142.841V141.526Z" fill="white"/>
<path d="M280.447 84.7015L279.284 78.1346L275.918 78.731L277.081 85.2978L270.425 84.0297L269.869 87.3155L276.495 88.4181L273.591 94.5105L276.848 95.8686L279.613 89.6302L284.684 94.4803L286.88 92.0992L282.124 87.4209L288.079 84.0893L286.262 81.2238L280.447 84.7015Z" fill="#FF8500"/>
<path d="M49.9561 88.0275L46.9347 82.0821L43.887 83.6309L46.9085 89.5763L40.1711 90.2971L40.5937 93.6027L47.255 92.7321L46.2459 99.4056L49.7571 99.7587L50.5901 92.986L56.8517 96.1532L58.2612 93.2366L52.351 90.1423L57.081 85.2239L54.51 83.0101L49.9561 88.0275Z" fill="#FF8500"/>
<path d="M117.159 58.7961L118.109 54.309L115.827 53.8262L114.877 58.3133L110.993 55.7974L109.798 57.7507L113.706 60.1534L110.306 63.2946L112.017 64.9961L115.367 61.726L117.329 66.1201L119.329 65.1644L117.522 60.9608L122.143 60.3628L121.729 58.0691L117.159 58.7961Z" fill="#FFC10A"/>
<path d="M190.646 23.6691V17H187.227V23.6691L180.894 21.2593L179.773 24.3977L186.106 26.6394L182.183 32.1316L185.154 34.0371L188.964 28.3767L193.112 34.0371L195.69 32.0756L191.823 26.6394L198.268 24.3977L196.979 21.2593L190.646 23.6691Z" fill="#FFC10A"/>
<path d="M280.333 136.536V132.363H278.195V136.536L274.233 135.028L273.531 136.992L277.493 138.394L275.039 141.83L276.897 143.022L279.282 139.481L281.876 143.022L283.489 141.795L281.07 138.394L285.102 136.992L284.295 135.028L280.333 136.536Z" fill="#FFC10A"/>
<path d="M230.951 74.2202L227.898 73.1683C226.963 72.8157 225.941 72.7393 224.952 72.948C223.963 73.1566 223.047 73.6417 222.312 74.3463L216.89 79.7548C216.717 79.9363 216.597 80.1618 216.545 80.4054C216.493 80.6489 216.511 80.9007 216.595 81.1317C216.68 81.3794 216.824 81.6008 217.017 81.7762C217.209 81.9515 217.444 82.0752 217.699 82.1361L225.062 83.8634" fill="#F1F1F1"/>
<path d="M230.951 74.2202L227.898 73.1683C226.963 72.8157 225.941 72.7393 224.952 72.948C223.963 73.1566 223.047 73.6417 222.312 74.3463L216.89 79.7548C216.717 79.9363 216.597 80.1618 216.545 80.4054C216.493 80.6489 216.511 80.9007 216.595 81.1317C216.68 81.3794 216.824 81.6008 217.017 81.7762C217.209 81.9515 217.444 82.0752 217.699 82.1361L225.062 83.8634L230.951 74.2202Z" stroke="#9F9F9F" stroke-width="0.5" stroke-linecap="round" stroke-linejoin="round"/>
<path d="M242.995 86.1782L244.047 89.2311C244.399 90.1658 244.476 91.1877 244.267 92.177C244.058 93.1664 243.573 94.0821 242.869 94.8169L237.46 100.239C237.279 100.412 237.053 100.532 236.809 100.584C236.566 100.636 236.314 100.618 236.083 100.533C235.835 100.449 235.614 100.305 235.439 100.112C235.263 99.9194 235.14 99.6852 235.079 99.4304L233.351 92.0666" fill="#F1F1F1"/>
<path d="M242.995 86.1782L244.047 89.2311C244.399 90.1658 244.476 91.1877 244.267 92.177C244.058 93.1664 243.573 94.0821 242.869 94.8169L237.46 100.239C237.279 100.412 237.053 100.532 236.809 100.584C236.566 100.636 236.314 100.618 236.083 100.533C235.835 100.449 235.614 100.305 235.439 100.112C235.263 99.9194 235.14 99.6852 235.079 99.4304L233.351 92.0666L242.995 86.1782Z" stroke="#9F9F9F" stroke-width="0.5" stroke-linecap="round" stroke-linejoin="round"/>
<path d="M263.015 67.8943C263.015 67.8893 263.015 67.8843 263.015 67.8793L262.502 54.6542C262.497 54.5237 262.392 54.4191 262.262 54.4141L249.037 53.9019C249.032 53.9017 249.027 53.9016 249.022 53.9017C247.026 53.943 245.072 54.4744 243.331 55.4492C241.59 56.4241 240.116 57.8124 239.039 59.4919L239.039 59.4918L239.035 59.4976L224.674 83.282C224.615 83.3804 224.63 83.5066 224.711 83.5879L233.305 92.1936C233.386 92.275 233.513 92.2904 233.611 92.231L257.396 77.8811L257.396 77.8811L257.401 77.8778C259.086 76.8044 260.479 75.3318 261.459 73.5904C262.438 71.8491 262.972 69.8927 263.015 67.8943Z" fill="white" stroke="#9F9F9F" stroke-width="0.5" stroke-linecap="round" stroke-linejoin="round"/>
<path d="M262.251 54.6651L262.764 67.8903C262.764 67.8903 259.692 62.6561 256.976 59.9407C254.261 57.2254 249.027 54.153 249.027 54.153L262.251 54.6651Z" fill="#F1F1F1"/>
<path d="M247.297 74.3864C249.935 74.3864 252.073 72.248 252.073 69.6101C252.073 66.9723 249.935 64.8339 247.297 64.8339C244.659 64.8339 242.521 66.9723 242.521 69.6101C242.521 72.248 244.659 74.3864 247.297 74.3864Z" fill="#F5F5F5" stroke="#9F9F9F" stroke-width="0.5" stroke-linecap="round" stroke-linejoin="round"/>
<path d="M226.247 98.906C225.7 99.453 224.782 99.8698 223.676 100.179C222.576 100.487 221.323 100.679 220.135 100.799C218.949 100.918 217.835 100.964 217.018 100.98C216.609 100.988 216.275 100.988 216.043 100.987C216 100.987 215.96 100.986 215.923 100.986C215.923 100.95 215.923 100.91 215.922 100.866C215.921 100.634 215.921 100.3 215.929 99.8916C215.945 99.0741 215.991 97.9605 216.11 96.7742C216.23 95.5867 216.423 94.3333 216.73 93.2338C217.039 92.1269 217.456 91.2097 218.003 90.6627C220.28 88.3864 223.97 88.3864 226.247 90.6627C228.523 92.939 228.523 96.6297 226.247 98.906Z" fill="white" stroke="#9F9F9F" stroke-width="0.5"/>
<path d="M224.58 96.5017C223.427 97.6548 219.36 97.5456 219.36 97.5456C219.36 97.5456 219.251 93.4791 220.404 92.3261C221.557 91.173 223.427 91.173 224.58 92.3261C225.733 93.4791 225.733 95.3486 224.58 96.5017Z" fill="#F1F1F1"/>
</svg>
